<svg enable-background="new 0 0 32 32" height="50px"  viewBox="0 0 32 32" width="50px">
        <circle cx="16" cy="16" r="15" fill="transparent" />
        <path d="M25.707,15.286l-6.899-6.999c-0.391-0.395-1.024-0.394-1.414,0c-0.391,0.395-0.391,1.034,0,1.429l5.2,5.275   H7c-0.552,0-1,0.452-1,1.01c0,0.558,0.448,1.01,1,1.01h15.593l-5.2,5.275c-0.39,0.394-0.39,1.034,0,1.428   c0.391,0.394,1.024,0.394,1.414,0l6.899-6.999C25.893,16.527,26,16.264,26,16C26,15.737,25.892,15.474,25.707,15.286z" fill="#000000"/>
</svg>
